# xmcd CD database file
#
# Track frame offsets:
#	150
#	16886
#	35288
#	53066
#	68727
#	93605
#	111648
#	131964
#	148339
#	175805
#
# Disc length: 2498 seconds
#
# Revision: 0
# Processed by: cddbd v1.5.1PL0 Copyright (c) Steve Scherf et al.
# Submitted via: CDex 1.51
#
DISCID=9309c00a
DTITLE=Mark Sallings and the Famous Unknowns - Temporary Life
DYEAR=2005
DGENRE=Blues
TTITLE0=Folly Beach Boogie
TTITLE1=Mojo Hoodoo
TTITLE2=Temporary Life
TTITLE3=Rocket Tanch Groove
TTITLE4=I Just Got Some
TTITLE5=Oil Man
TTITLE6=After The King Is Gone
TTITLE7=Night Train
TTITLE8=Nightmare
TTITLE9=Mad Cow Boogie
EXTD=YEAR: 2005
EXTT0=
EXTT1=
EXTT2=
EXTT3=
EXTT4=
EXTT5=
EXTT6=
EXTT7=
EXTT8=
EXTT9=
PLAYORDER=
